# Blender v2.77 (sub 0) OBJ File: ''
# www.blender.org
mtllib slotmachine_sonjabi.mtl
o Object__11
v 0.494772 0.000443 0.047508
v 0.494772 -0.032955 0.033674
v 0.765429 -0.032955 0.033674
v 0.765429 0.000443 0.047508
v 0.494772 -0.046789 0.000276
v 0.765429 -0.046789 0.000276
v 0.494772 -0.032955 -0.033122
v 0.765429 -0.032955 -0.033122
v 0.494772 0.000443 -0.046956
v 0.765429 0.000443 -0.046956
v 0.494772 0.033841 -0.033122
v 0.765429 0.033841 -0.033122
v 0.494772 0.047674 0.000276
v 0.765429 0.047674 0.000276
v 0.494772 0.033841 0.033674
v 0.765429 0.033841 0.033674
v 0.804624 -0.039878 0.040851
v 0.804624 0.000617 0.057625
v 0.804624 -0.056652 0.000356
v 0.804624 -0.039878 -0.040138
v 0.804624 0.000617 -0.056912
v 0.804624 0.041112 -0.040138
v 0.804624 0.057885 0.000356
v 0.804624 0.041112 0.040851
v 0.830348 -0.039878 0.040851
v 0.830348 0.000617 0.057625
v 0.830348 -0.056652 0.000356
v 0.830348 -0.039878 -0.040138
v 0.830348 0.000617 -0.056912
v 0.830348 0.041112 -0.040138
v 0.830348 0.057885 0.000356
v 0.830348 0.041112 0.040851
v 0.494772 0.000443 0.000276
v 0.857290 0.000617 0.000356
v 0.724550 0.002445 0.039414
v 0.752270 0.002445 0.027932
v 0.752270 0.600700 0.027932
v 0.724550 0.600700 0.039414
v 0.763752 0.002445 0.000212
v 0.763752 0.600700 0.000212
v 0.752270 0.002445 -0.027508
v 0.752270 0.600700 -0.027509
v 0.724550 0.002445 -0.038991
v 0.724550 0.600700 -0.038991
v 0.696830 0.002445 -0.027509
v 0.696830 0.600700 -0.027509
v 0.685348 0.002445 0.000212
v 0.685348 0.600700 0.000212
v 0.696830 0.002445 0.027932
v 0.696830 0.600700 0.027932
v 0.775654 0.639895 0.051580
v 0.724406 0.639895 0.072807
v 0.796881 0.639895 0.000332
v 0.775654 0.639895 -0.050916
v 0.724406 0.639895 -0.072144
v 0.673158 0.639895 -0.050916
v 0.651930 0.639895 0.000332
v 0.673158 0.639895 0.051580
v 0.775654 0.688520 0.051580
v 0.724406 0.688520 0.072807
v 0.796881 0.688520 0.000332
v 0.775654 0.688520 -0.050916
v 0.724406 0.688520 -0.072144
v 0.673158 0.688520 -0.050916
v 0.651930 0.688520 0.000332
v 0.673158 0.688520 0.051580
v 0.724550 0.002445 0.000212
v 0.724406 0.715462 0.000332
vt 0.0000 0.0000
vt 1.0000 0.0000
vt 1.0000 1.0000
vt 1.0000 0.0000
vt 1.0000 1.0000
vt 0.0000 0.0000
vt 1.0000 0.0000
vt 1.0000 1.0000
vt 1.0000 0.0000
vt 0.0000 0.0000
vt 1.0000 0.0000
vt 1.0000 1.0000
vt 1.0000 0.0000
vt 0.0000 0.0000
vt 1.0000 0.0000
vt 1.0000 1.0000
vt 1.0000 0.0000
vt 0.0000 0.0000
vt 1.0000 0.0000
vt 1.0000 1.0000
vt 1.0000 0.0000
vt 0.0000 0.0000
vt 1.0000 0.0000
vt 1.0000 1.0000
vt 1.0000 0.0000
vt 0.0000 0.0000
vt 1.0000 0.0000
vt 1.0000 1.0000
vt 1.0000 0.0000
vt 0.0000 0.0000
vt 1.0000 0.0000
vt 1.0000 0.0000
vt 0.0000 0.0000
vt 1.0000 1.0000
vt 1.0000 0.0000
vt 1.0000 1.0000
vt 0.0000 0.0000
vt 1.0000 1.0000
vt 1.0000 0.0000
vt 0.0000 0.0000
vt 1.0000 1.0000
vt 1.0000 0.0000
vt 0.0000 0.0000
vt 1.0000 1.0000
vt 1.0000 0.0000
vt 0.0000 0.0000
vt 1.0000 1.0000
vt 1.0000 0.0000
vt 0.0000 0.0000
vt 1.0000 1.0000
vt 1.0000 0.0000
vt 0.0000 0.0000
vt 1.0000 1.0000
vt 1.0000 0.0000
vt 0.0000 0.0000
vt 1.0000 0.0000
vt 0.0000 0.0000
vt 1.0000 1.0000
vt 1.0000 0.0000
vt 1.0000 1.0000
vt 0.0000 0.0000
vt 1.0000 1.0000
vt 1.0000 0.0000
vt 0.0000 0.0000
vt 1.0000 1.0000
vt 1.0000 0.0000
vt 0.0000 0.0000
vt 1.0000 1.0000
vt 1.0000 0.0000
vt 0.0000 0.0000
vt 1.0000 1.0000
vt 1.0000 0.0000
vt 0.0000 0.0000
vt 1.0000 1.0000
vt 1.0000 0.0000
vt 0.0000 0.0000
vt 1.0000 1.0000
vt 1.0000 0.0000
vt 0.0000 0.0000
vt 1.0000 0.0000
vt 1.0000 1.0000
vt 0.0000 0.0000
vt 1.0000 1.0000
vt 0.0000 0.0000
vt 0.0000 0.0000
vt 0.0000 0.0000
vt 0.0000 0.0000
vt 0.0000 0.0000
vt 0.0000 0.0000
vt 0.0000 0.0000
vt 0.0000 0.0000
vt 1.0000 0.0000
vt 1.0000 1.0000
vt 1.0000 0.0000
vt 1.0000 1.0000
vt 0.0000 0.0000
vt 1.0000 0.0000
vt 1.0000 1.0000
vt 1.0000 0.0000
vt 0.0000 0.0000
vt 1.0000 0.0000
vt 1.0000 1.0000
vt 1.0000 0.0000
vt 0.0000 0.0000
vt 1.0000 0.0000
vt 1.0000 1.0000
vt 1.0000 0.0000
vt 0.0000 0.0000
vt 1.0000 0.0000
vt 1.0000 1.0000
vt 1.0000 0.0000
vt 0.0000 0.0000
vt 1.0000 0.0000
vt 1.0000 1.0000
vt 1.0000 0.0000
vt 0.0000 0.0000
vt 1.0000 0.0000
vt 1.0000 1.0000
vt 1.0000 0.0000
vt 0.0000 0.0000
vt 1.0000 0.0000
vt 1.0000 0.0000
vt 0.0000 0.0000
vt 1.0000 1.0000
vt 1.0000 0.0000
vt 1.0000 1.0000
vt 0.0000 0.0000
vt 1.0000 1.0000
vt 1.0000 0.0000
vt 0.0000 0.0000
vt 1.0000 1.0000
vt 1.0000 0.0000
vt 0.0000 0.0000
vt 1.0000 1.0000
vt 1.0000 0.0000
vt 0.0000 0.0000
vt 1.0000 1.0000
vt 1.0000 0.0000
vt 0.0000 0.0000
vt 1.0000 1.0000
vt 1.0000 0.0000
vt 0.0000 0.0000
vt 1.0000 1.0000
vt 1.0000 0.0000
vt 0.0000 0.0000
vt 1.0000 0.0000
vt 0.0000 0.0000
vt 1.0000 1.0000
vt 1.0000 0.0000
vt 1.0000 1.0000
vt 0.0000 0.0000
vt 1.0000 1.0000
vt 1.0000 0.0000
vt 0.0000 0.0000
vt 1.0000 1.0000
vt 1.0000 0.0000
vt 0.0000 0.0000
vt 1.0000 1.0000
vt 1.0000 0.0000
vt 0.0000 0.0000
vt 1.0000 1.0000
vt 1.0000 0.0000
vt 0.0000 0.0000
vt 1.0000 1.0000
vt 1.0000 0.0000
vt 0.0000 0.0000
vt 1.0000 1.0000
vt 1.0000 0.0000
vt 0.0000 0.0000
vt 1.0000 0.0000
vt 1.0000 1.0000
vt 0.0000 0.0000
vt 1.0000 1.0000
vt 0.0000 0.0000
vt 0.0000 0.0000
vt 0.0000 0.0000
vt 0.0000 0.0000
vt 0.0000 0.0000
vt 0.0000 0.0000
vt 0.0000 0.0000
vn 0.0000 -0.3827 0.9239
vn 0.0000 -0.9239 0.3827
vn 0.0000 -0.9239 -0.3827
vn 0.0000 -0.3827 -0.9239
vn -0.0000 0.3827 -0.9239
vn 0.0000 0.9239 -0.3827
vn 0.0000 0.9239 0.3827
vn 0.0000 0.3827 0.9239
vn -0.2304 -0.3724 0.8990
vn -0.2272 -0.8997 0.3727
vn -0.2257 -0.9000 -0.3728
vn -0.2269 -0.3727 -0.8998
vn -0.2300 0.3724 -0.8991
vn -0.2333 0.8984 -0.3721
vn -0.2347 0.8981 0.3720
vn -0.2335 0.3721 0.8983
vn -1.0000 0.0000 0.0000
vn 0.8911 -0.1737 0.4192
vn 0.8911 -0.4192 0.1737
vn 0.8911 -0.4192 -0.1737
vn 0.8911 -0.1737 -0.4192
vn 0.8911 0.1737 -0.4192
vn 0.8911 0.4192 -0.1736
vn 0.8911 0.4192 0.1736
vn 0.8911 0.1737 0.4192
vn 0.3827 -0.0000 0.9239
vn 0.9239 -0.0000 0.3827
vn 0.9239 -0.0000 -0.3827
vn 0.3827 0.0000 -0.9239
vn -0.3827 0.0000 -0.9239
vn -0.9239 0.0000 -0.3827
vn -0.9239 -0.0000 0.3827
vn -0.3827 -0.0000 0.9239
vn 0.3009 -0.6178 0.7265
vn 0.7278 -0.6160 0.3014
vn 0.7277 -0.6160 0.3014
vn 0.7286 -0.6149 -0.3018
vn 0.3017 -0.6151 -0.7285
vn -0.3013 -0.6164 -0.7275
vn -0.7262 -0.6182 -0.3008
vn -0.7253 -0.6194 0.3005
vn -0.7254 -0.6194 0.3005
vn -0.3005 -0.6192 0.7255
vn -0.0000 -1.0000 -0.0000
vn 0.1428 0.9277 0.3449
vn 0.3449 0.9277 0.1428
vn 0.3449 0.9277 -0.1428
vn 0.1429 0.9277 -0.3449
vn -0.1429 0.9277 -0.3449
vn -0.3449 0.9277 -0.1429
vn -0.3449 0.9277 0.1429
vn -0.1428 0.9277 0.3449
usemtl Material__2
s 1
f 1/1/1 2/2/1 3/3/1
f 1/1/1 3/4/1 4/5/1
f 2/6/2 5/7/2 6/8/2
f 2/6/2 6/9/2 3/3/2
f 5/10/3 7/11/3 8/12/3
f 5/10/3 8/13/3 6/8/3
f 7/14/4 9/15/4 10/16/4
f 7/14/4 10/17/4 8/12/4
f 9/18/5 11/19/5 12/20/5
f 9/18/5 12/21/5 10/16/5
f 11/22/6 13/23/6 14/24/6
f 11/22/6 14/25/6 12/20/6
f 13/26/7 15/27/7 16/28/7
f 13/26/7 16/29/7 14/24/7
f 15/30/8 1/31/8 4/5/8
f 15/30/8 4/32/8 16/28/8
f 4/33/9 3/4/9 17/34/9
f 4/33/9 17/35/9 18/36/9
f 3/37/10 6/9/10 19/38/10
f 3/37/10 19/39/10 17/34/10
f 6/40/11 8/13/11 20/41/11
f 6/40/11 20/42/11 19/38/11
f 8/43/12 10/17/12 21/44/12
f 8/43/12 21/45/12 20/41/12
f 10/46/13 12/21/13 22/47/13
f 10/46/13 22/48/13 21/44/13
f 12/49/14 14/25/14 23/50/14
f 12/49/14 23/51/14 22/47/14
f 14/52/15 16/29/15 24/53/15
f 14/52/15 24/54/15 23/50/15
f 16/55/16 4/32/16 18/36/16
f 16/55/16 18/56/16 24/53/16
f 18/57/1 17/35/1 25/58/1
f 18/57/1 25/59/1 26/60/1
f 17/61/2 19/39/2 27/62/2
f 17/61/2 27/63/2 25/58/2
f 19/64/3 20/42/3 28/65/3
f 19/64/3 28/66/3 27/62/3
f 20/67/4 21/45/4 29/68/4
f 20/67/4 29/69/4 28/65/4
f 21/70/5 22/48/5 30/71/5
f 21/70/5 30/72/5 29/68/5
f 22/73/6 23/51/6 31/74/6
f 22/73/6 31/75/6 30/71/6
f 23/76/7 24/54/7 32/77/7
f 23/76/7 32/78/7 31/74/7
f 24/79/8 18/56/8 26/60/8
f 24/79/8 26/80/8 32/77/8
f 2/6/17 1/31/17 33/81/17
f 5/10/17 2/2/17 33/81/17
f 7/14/17 5/7/17 33/81/17
f 9/18/17 7/11/17 33/81/17
f 11/22/17 9/15/17 33/81/17
f 13/26/17 11/19/17 33/81/17
f 15/30/17 13/23/17 33/81/17
f 1/1/17 15/27/17 33/81/17
f 26/82/18 25/59/18 34/83/18
f 25/84/19 27/63/19 34/83/19
f 27/85/20 28/66/20 34/83/20
f 28/86/21 29/69/21 34/83/21
f 29/87/22 30/72/22 34/83/22
f 30/88/23 31/75/23 34/83/23
f 31/89/24 32/78/24 34/83/24
f 32/90/25 26/80/25 34/83/25
f 35/91/26 36/92/26 37/93/26
f 35/91/26 37/94/26 38/95/26
f 36/96/27 39/97/27 40/98/27
f 36/96/27 40/99/27 37/93/27
f 39/100/28 41/101/28 42/102/28
f 39/100/28 42/103/28 40/98/28
f 41/104/29 43/105/29 44/106/29
f 41/104/29 44/107/29 42/102/29
f 43/108/30 45/109/30 46/110/30
f 43/108/30 46/111/30 44/106/30
f 45/112/31 47/113/31 48/114/31
f 45/112/31 48/115/31 46/110/31
f 47/116/32 49/117/32 50/118/32
f 47/116/32 50/119/32 48/114/32
f 49/120/33 35/121/33 38/95/33
f 49/120/33 38/122/33 50/118/33
f 38/123/34 37/94/34 51/124/34
f 38/123/34 51/125/34 52/126/34
f 37/127/35 40/99/35 53/128/35
f 37/127/35 53/129/35 51/124/36
f 40/130/37 42/103/37 54/131/37
f 40/130/37 54/132/37 53/128/37
f 42/133/38 44/107/38 55/134/38
f 42/133/38 55/135/38 54/131/38
f 44/136/39 46/111/39 56/137/39
f 44/136/39 56/138/39 55/134/39
f 46/139/40 48/115/40 57/140/40
f 46/139/40 57/141/40 56/137/40
f 48/142/41 50/119/42 58/143/41
f 48/142/41 58/144/41 57/140/41
f 50/145/43 38/122/43 52/126/43
f 50/145/43 52/146/43 58/143/43
f 52/147/26 51/125/26 59/148/26
f 52/147/26 59/149/26 60/150/26
f 51/151/27 53/129/27 61/152/27
f 51/151/27 61/153/27 59/148/27
f 53/154/28 54/132/28 62/155/28
f 53/154/28 62/156/28 61/152/28
f 54/157/29 55/135/29 63/158/29
f 54/157/29 63/159/29 62/155/29
f 55/160/30 56/138/30 64/161/30
f 55/160/30 64/162/30 63/158/30
f 56/163/31 57/141/31 65/164/31
f 56/163/31 65/165/31 64/161/31
f 57/166/32 58/144/32 66/167/32
f 57/166/32 66/168/32 65/164/32
f 58/169/33 52/146/33 60/150/33
f 58/169/33 60/170/33 66/167/33
f 36/96/44 35/121/44 67/171/44
f 39/100/44 36/92/44 67/171/44
f 41/104/44 39/97/44 67/171/44
f 43/108/44 41/101/44 67/171/44
f 45/112/44 43/105/44 67/171/44
f 47/116/44 45/109/44 67/171/44
f 49/120/44 47/113/44 67/171/44
f 35/91/44 49/117/44 67/171/44
f 60/172/45 59/149/45 68/173/45
f 59/174/46 61/153/46 68/173/46
f 61/175/47 62/156/47 68/173/47
f 62/176/48 63/159/48 68/173/48
f 63/177/49 64/162/49 68/173/49
f 64/178/50 65/165/50 68/173/50
f 65/179/51 66/168/51 68/173/51
f 66/180/52 60/170/52 68/173/52
